<?xml version="1.0" standalone="no"?>
<!DOCTYPE svg PUBLIC "-//W3C//DTD SVG 20010904//EN"
 "http://www.w3.org/TR/2001/REC-SVG-20010904/DTD/svg10.dtd">
<svg version="1.0" xmlns="http://www.w3.org/2000/svg"
 width="1280.000000pt" height="1244.000000pt" viewBox="0 0 1280.000000 1244.000000"
 preserveAspectRatio="xMidYMid meet">
<metadata>
Created by potrace 1.15, written by Peter Selinger 2001-2017
</metadata>
<g transform="translate(0.000000,1244.000000) scale(0.100000,-0.100000)"
fill="#000000" stroke="none">
<path d="M4873 12428 c-33 -16 -56 -70 -43 -104 12 -31 37 -53 62 -54 11 0 24
-22 41 -75 14 -41 22 -76 19 -79 -4 -2 -25 -9 -47 -16 -56 -17 -121 -56 -171
-102 -28 -26 -43 -34 -47 -25 -2 7 -45 26 -95 41 -74 24 -92 34 -96 52 -8 31
-45 64 -72 64 -31 0 -71 -35 -79 -69 -7 -33 15 -85 40 -95 31 -12 72 -6 88 12
16 17 20 17 111 -12 l94 -29 -19 -31 c-34 -55 -34 -107 -3 -193 21 -58 39 -88
72 -119 l44 -42 -36 -54 c-30 -45 -41 -54 -68 -56 -70 -6 -104 -84 -55 -130
27 -26 82 -29 114 -7 26 18 38 67 24 94 -9 16 -4 30 31 81 31 45 46 59 58 53
8 -4 65 -7 125 -8 l110 0 23 -68 c22 -67 47 -216 37 -225 -2 -3 -10 0 -17 5
-7 6 -41 21 -75 33 -51 18 -77 22 -135 18 -160 -11 -252 -107 -339 -356 -18
-54 -35 -88 -39 -81 -5 7 -18 -6 -36 -37 -24 -41 -29 -61 -31 -127 -1 -47 2
-75 8 -72 5 4 9 13 9 22 0 9 2 14 5 11 8 -7 -30 -177 -61 -272 -38 -118 -89
-213 -146 -268 -27 -26 -55 -48 -62 -48 -13 0 -59 124 -92 248 l-17 63 24 17
c13 9 37 29 52 44 33 33 36 33 81 12 24 -12 36 -25 40 -45 8 -41 47 -58 80
-35 69 45 22 154 -49 116 -22 -12 -30 -11 -61 3 -30 15 -34 20 -27 40 13 37 7
161 -11 194 -8 17 -29 42 -46 57 l-31 26 41 55 c29 39 47 55 64 55 69 0 74
115 5 133 -33 9 -73 -36 -65 -74 5 -25 -2 -40 -34 -84 -22 -30 -40 -58 -40
-64 0 -5 -24 -7 -57 -4 -32 3 -76 0 -97 -6 -22 -6 -42 -9 -44 -7 -2 2 -9 28
-16 58 -10 44 -10 56 1 66 7 7 13 28 13 47 0 42 -36 71 -75 61 -51 -13 -59
-96 -11 -117 18 -8 25 -24 35 -72 l11 -62 -32 -25 c-56 -43 -97 -92 -114 -137
l-17 -44 -56 3 -56 3 -120 177 c-202 298 -309 419 -402 454 -61 24 -113 8
-145 -44 -20 -32 -23 -53 -27 -154 -2 -65 -7 -116 -11 -113 -16 10 -100 -77
-126 -130 -23 -48 -26 -64 -22 -128 3 -61 9 -83 33 -122 17 -26 46 -61 66 -77
45 -36 111 -61 121 -45 6 9 14 -13 34 -95 3 -16 10 -26 14 -23 5 3 6 -3 3 -14
-3 -10 0 -22 6 -25 7 -4 11 -42 11 -94 -1 -133 -31 -182 -146 -240 -71 -36
-154 -45 -344 -37 -237 9 -296 -3 -447 -92 l-43 -25 14 27 c29 55 -16 125 -80
125 -34 0 -74 -31 -74 -56 0 -14 -7 -17 -94 -35 -55 -12 -60 -12 -70 6 -28 47
-74 89 -124 111 -47 21 -54 27 -49 46 3 13 11 49 18 81 11 46 18 59 36 63 30
8 63 50 63 80 0 30 -38 72 -71 78 -50 8 -109 -39 -109 -88 0 -7 10 -26 21 -40
19 -24 20 -32 11 -64 -6 -20 -15 -56 -21 -78 -10 -38 -14 -42 -52 -48 -62 -10
-137 -52 -196 -111 l-53 -54 -70 32 c-54 25 -69 37 -70 54 0 37 -42 76 -80 76
-71 0 -106 -92 -55 -147 26 -28 59 -33 98 -15 20 9 34 6 85 -20 l61 -31 -30
-65 c-16 -35 -34 -97 -40 -137 l-11 -73 -90 -42 c-69 -33 -94 -41 -108 -33
-53 28 -120 -11 -120 -70 0 -35 35 -76 73 -85 40 -10 85 19 93 60 5 31 15 40
80 76 72 39 94 43 94 13 0 -8 11 -32 25 -53 18 -30 43 -48 100 -76 65 -32 82
-36 135 -33 l60 3 6 -45 c3 -25 8 -53 11 -62 2 -10 0 -18 -6 -18 -19 0 -43
-61 -37 -92 3 -17 2 -27 -4 -23 -14 9 -58 -87 -68 -149 -27 -170 72 -347 241
-432 38 -20 74 -33 80 -31 6 2 32 -22 58 -53 40 -48 86 -90 174 -159 18 -15
19 -15 7 1 -12 15 -10 17 20 22 69 9 77 6 162 -75 150 -142 192 -232 184 -393
-12 -219 -134 -399 -505 -749 l-178 -167 -80 7 c-162 16 -340 8 -483 -20 -72
-15 -135 -27 -140 -27 -4 0 -26 22 -50 50 l-43 49 42 38 c23 21 48 44 56 52 8
7 25 11 40 8 30 -6 74 8 85 26 19 29 8 67 -25 88 -62 39 -144 4 -134 -58 5
-29 0 -36 -48 -78 l-54 -46 -58 17 c-48 14 -67 15 -119 5 -96 -17 -96 -17
-132 49 -31 56 -32 61 -18 82 22 31 20 45 -9 73 -41 41 -113 27 -136 -26 -15
-37 8 -76 49 -85 15 -3 32 -7 37 -9 6 -2 23 -28 39 -59 l29 -57 -36 -33 c-44
-40 -87 -127 -87 -177 0 -43 -5 -45 -92 -55 -35 -4 -71 -11 -80 -16 -12 -6
-18 -5 -18 2 0 17 -67 41 -95 34 -29 -7 -55 -39 -55 -67 0 -10 12 -29 26 -42
43 -40 119 -31 136 16 4 11 24 18 60 23 29 4 67 9 85 12 30 6 32 4 43 -37 14
-52 40 -104 73 -143 l23 -29 -43 -65 c-24 -37 -43 -69 -43 -73 0 -3 -16 -9
-36 -12 -72 -12 -97 -67 -48 -106 69 -54 177 0 137 69 -15 26 -13 32 62 158 1
1 26 -9 56 -23 88 -41 232 -25 316 34 l44 32 50 -37 c39 -28 49 -42 49 -64 0
-62 89 -92 135 -45 31 30 32 68 4 96 -18 18 -30 20 -70 17 -27 -3 -50 -2 -51
2 -2 3 -24 21 -51 39 l-47 32 16 30 c8 17 18 52 21 80 3 27 7 49 9 49 2 0 64
12 136 27 128 25 336 38 353 22 3 -4 -12 -31 -35 -60 -79 -104 -140 -258 -140
-355 0 -123 52 -248 133 -319 109 -96 235 -138 612 -205 127 -22 271 -51 320
-64 107 -29 205 -70 205 -87 0 -18 -135 -173 -223 -254 -73 -68 -234 -185
-255 -185 -4 0 -29 20 -55 44 -39 36 -47 49 -47 79 0 23 9 46 25 65 14 17 25
41 25 54 0 49 -61 76 -94 42 -20 -20 -20 -43 -1 -71 11 -16 14 -34 9 -62 -6
-40 -8 -41 -46 -41 -72 0 -159 -60 -181 -125 -2 -6 -24 0 -50 12 -33 16 -51
32 -61 57 -17 42 -48 54 -81 32 -24 -16 -30 -32 -25 -66 3 -26 33 -42 67 -35
48 9 143 -47 143 -83 0 -15 11 -57 24 -95 20 -61 21 -68 7 -81 -27 -24 -65
-35 -85 -24 -12 7 -26 7 -42 -1 -43 -19 -44 -94 -1 -110 34 -13 58 -1 73 35 9
22 28 41 53 54 l40 20 44 -44 c25 -24 67 -52 94 -61 26 -10 53 -25 60 -33 20
-24 26 -88 11 -128 -12 -34 -12 -37 15 -60 35 -30 42 -30 72 1 32 31 31 40 -4
75 -24 24 -51 92 -51 129 0 6 18 20 39 31 22 11 49 34 62 51 20 29 25 31 63
25 27 -5 50 -17 69 -37 33 -37 62 -35 91 4 19 26 19 30 5 55 -17 32 -50 39
-79 19 -16 -11 -31 -12 -63 -5 -23 5 -45 12 -48 16 -4 4 -9 31 -11 60 l-5 52
66 41 c149 94 291 222 424 382 l57 68 20 -33 c53 -86 66 -233 30 -336 -46
-132 -178 -274 -404 -438 -396 -287 -535 -407 -604 -525 -58 -100 -75 -162
-70 -270 3 -84 8 -104 37 -163 78 -159 252 -286 573 -418 l103 -43 150 1 c163
0 197 6 467 84 441 128 608 125 735 -13 68 -74 87 -120 87 -212 1 -133 -42
-231 -241 -549 -205 -327 -260 -465 -236 -599 6 -34 14 -69 18 -79 5 -13 -8
-19 -87 -37 -142 -32 -220 -41 -369 -41 l-137 0 -7 38 c-3 20 -15 57 -26 81
l-19 44 36 43 c29 36 41 44 69 44 24 0 39 7 49 22 55 79 -45 175 -104 101 -15
-20 -20 -37 -17 -58 4 -23 -2 -38 -28 -69 l-32 -38 -39 26 c-45 29 -151 48
-198 35 -16 -5 -45 -19 -65 -32 l-36 -24 -42 68 c-23 38 -37 71 -32 74 19 12
10 73 -13 89 -50 35 -128 3 -128 -53 0 -29 43 -71 72 -71 18 0 31 -15 58 -61
19 -33 40 -65 46 -70 8 -7 5 -26 -13 -70 -13 -33 -27 -88 -31 -122 l-7 -62
-60 4 c-50 3 -63 8 -86 32 -33 35 -59 37 -95 5 -21 -18 -28 -32 -28 -61 0 -62
63 -87 117 -45 25 20 69 25 124 14 26 -5 31 -12 42 -57 16 -72 49 -133 92
-172 l37 -33 -20 -71 c-13 -43 -27 -71 -35 -71 -23 0 -53 -39 -53 -67 1 -81
110 -106 140 -33 11 28 1 65 -21 80 -4 3 2 37 13 76 l21 71 68 -5 c57 -4 74
-1 104 17 l36 21 53 -45 c46 -40 52 -49 48 -78 -8 -66 79 -96 125 -43 30 35
29 67 -1 95 -19 18 -33 22 -57 19 -27 -4 -39 2 -80 41 l-49 46 30 61 30 61
172 6 c186 6 295 21 452 62 l99 26 66 -64 c145 -141 351 -241 596 -292 115
-23 289 -45 364 -45 59 0 67 -2 76 -22 6 -13 21 -28 34 -35 14 -6 33 -27 42
-45 17 -33 17 -33 -11 -63 -15 -16 -33 -47 -40 -68 l-12 -39 -50 7 c-28 4 -59
16 -69 26 -45 45 -114 -5 -86 -62 15 -28 74 -40 92 -17 7 9 26 12 62 10 46 -3
53 -7 63 -33 12 -27 77 -93 114 -114 16 -9 17 -15 6 -53 -7 -23 -17 -42 -22
-42 -13 0 -48 -39 -48 -54 0 -39 79 -63 108 -34 14 14 16 60 2 74 -6 6 -5 23
2 47 9 29 15 36 27 31 9 -4 57 -9 108 -10 l91 -2 37 -40 c28 -32 34 -46 29
-66 -9 -36 36 -80 74 -72 31 8 62 40 62 65 0 30 -30 61 -59 61 -18 0 -39 12
-65 39 l-37 38 23 26 c30 32 49 109 38 149 -8 26 -6 30 23 42 20 8 38 10 49 5
26 -14 64 -11 77 5 20 24 9 69 -19 83 -34 16 -65 7 -78 -22 -7 -15 -25 -28
-47 -34 -33 -9 -40 -7 -80 22 -24 18 -44 38 -44 45 -1 21 59 146 76 159 9 7
35 13 57 13 66 0 165 28 251 70 101 49 207 130 414 315 249 224 370 304 508
340 195 51 423 -24 653 -214 30 -25 183 -172 340 -326 299 -295 429 -403 560
-467 80 -39 174 -68 225 -68 24 0 35 -7 50 -32 24 -42 110 -157 172 -231 l48
-58 -29 -62 -30 -63 -66 9 c-54 8 -69 14 -88 38 -18 22 -32 29 -57 29 -63 0
-88 -78 -40 -125 30 -31 62 -32 91 -4 21 20 29 21 91 13 57 -8 68 -12 71 -29
8 -54 16 -70 58 -115 l46 -49 -42 -60 c-34 -50 -46 -61 -69 -61 -70 0 -87
-103 -21 -130 62 -26 125 23 103 80 -9 25 -6 34 31 87 40 58 42 59 76 51 46
-10 130 6 198 37 l56 26 47 -47 c41 -40 47 -51 42 -78 -6 -39 26 -76 66 -76
64 0 99 101 47 136 -14 8 -36 14 -50 12 -19 -2 -36 8 -69 40 l-43 42 47 51
c25 27 58 73 72 102 l25 52 88 10 c80 10 90 9 106 -7 10 -10 33 -18 52 -18 78
0 89 110 15 141 -24 9 -33 9 -55 -6 -15 -9 -28 -25 -31 -35 -4 -13 -19 -19
-69 -24 -35 -4 -71 -9 -79 -12 -12 -5 -15 2 -15 30 0 56 -28 107 -86 158 -38
34 -66 50 -94 54 -31 5 -39 11 -36 23 2 9 7 32 10 52 4 23 16 43 36 58 23 16
30 30 30 55 0 65 -77 90 -125 41 -30 -30 -31 -54 -4 -89 19 -24 19 -31 9 -81
-11 -53 -13 -55 -53 -66 -23 -6 -59 -20 -81 -31 l-39 -20 -41 48 c-23 26 -60
73 -83 103 l-42 56 75 37 c222 109 380 295 639 753 304 538 384 655 554 817
104 99 193 158 278 185 l52 16 73 -64 c188 -166 400 -306 605 -399 l73 -33 -6
-71 c-4 -39 -8 -72 -9 -74 -2 -2 -43 -11 -91 -21 -84 -17 -89 -17 -107 0 -58
54 -160 7 -141 -65 17 -70 120 -89 159 -30 18 27 28 32 95 43 41 7 83 15 93
17 10 3 17 0 17 -9 0 -28 74 -90 133 -111 32 -12 58 -26 58 -31 -2 -38 -38
-145 -48 -145 -27 0 -62 -24 -74 -51 -33 -82 104 -135 161 -62 26 33 25 54 -2
88 l-21 27 22 69 22 68 47 7 c69 10 160 55 218 107 29 26 55 47 60 47 4 0 43
-14 86 -32 58 -24 78 -37 78 -50 0 -11 11 -30 25 -43 45 -46 125 -24 141 39 7
28 -18 81 -41 90 -30 11 -82 6 -95 -9 -8 -9 -17 -12 -24 -7 -6 5 -38 19 -71
32 -33 13 -62 25 -64 26 -2 2 6 19 18 39 30 51 61 148 61 190 0 28 4 35 19 35
19 0 70 20 149 58 39 19 45 19 72 5 56 -28 120 7 120 65 0 37 -52 82 -95 82
-41 0 -85 -36 -85 -70 0 -15 -12 -26 -46 -40 -25 -11 -67 -30 -94 -43 l-48
-23 -11 36 c-27 91 -191 170 -314 149 -34 -5 -38 -4 -43 20 -3 14 -10 40 -14
58 -6 24 -4 33 6 37 8 3 22 22 30 42 15 35 14 39 -4 64 l-20 26 44 23 c136 72
220 250 195 412 -22 137 -85 258 -278 530 -166 235 -219 319 -266 424 -67 149
-81 266 -51 412 24 119 52 183 86 202 17 9 55 31 86 49 31 18 62 30 69 28 7
-3 68 -12 135 -21 381 -49 538 -90 752 -199 138 -70 127 -50 111 -206 l-8 -76
-47 -25 c-41 -22 -50 -24 -66 -12 -26 19 -49 16 -81 -11 -56 -48 -28 -146 42
-146 37 0 62 24 71 67 5 23 16 35 51 52 37 18 48 20 54 9 5 -7 9 -17 9 -21 0
-22 49 -73 103 -108 63 -41 117 -50 157 -29 23 12 25 4 35 -102 6 -59 4 -71
-14 -94 -45 -57 -11 -134 57 -134 43 0 72 30 72 75 0 33 -27 75 -49 75 -5 0
-12 42 -16 93 -4 50 -11 97 -16 103 -5 7 7 25 33 50 44 42 118 148 118 171 0
19 4 17 65 -22 34 -21 53 -40 49 -48 -9 -24 15 -67 43 -78 60 -23 127 45 106
108 -13 39 -56 59 -93 43 -26 -11 -34 -8 -85 25 -52 33 -57 39 -51 63 18 73
18 189 0 248 -10 32 -18 64 -17 70 0 6 19 36 42 67 36 47 47 55 73 55 62 -2
93 91 48 140 -51 55 -124 16 -119 -63 2 -35 -4 -49 -40 -98 -24 -31 -48 -57
-54 -57 -6 0 -29 12 -51 28 -27 18 -57 29 -93 32 l-55 5 -28 72 c-23 61 -25
74 -14 84 8 6 14 29 14 49 0 69 -70 102 -124 59 -37 -29 -37 -89 0 -118 15
-12 32 -21 39 -21 9 0 71 -150 63 -155 -2 -1 -27 -23 -56 -50 l-52 -48 -108
56 c-240 125 -421 175 -806 226 -90 12 -152 25 -157 32 -11 18 6 38 207 254
263 283 354 399 424 546 54 114 80 221 80 332 0 255 -119 438 -472 725 -48 39
-98 78 -110 87 l-23 16 30 25 c107 91 223 180 309 237 98 66 310 179 438 232
l66 27 37 -33 c20 -19 60 -47 89 -64 49 -28 52 -32 45 -60 -4 -16 -10 -42 -13
-57 -4 -18 -13 -28 -24 -28 -25 0 -62 -36 -62 -60 0 -10 11 -32 24 -47 20 -23
32 -28 71 -28 37 0 51 5 66 24 26 32 24 48 -9 80 -15 16 -27 32 -25 37 1 5 7
28 13 52 l11 43 58 -7 c49 -5 73 -2 140 21 132 44 174 93 175 205 1 55 -5 76
-33 135 -19 39 -35 74 -35 79 -1 5 32 21 72 36 68 27 74 27 103 13 80 -40 159
56 96 115 -47 44 -137 14 -137 -45 0 -15 -8 -22 -27 -26 -16 -2 -56 -15 -90
-27 l-61 -23 -44 37 c-57 50 -148 93 -227 108 l-64 13 -23 68 c-12 37 -19 67
-14 67 5 0 17 11 25 24 46 70 -81 138 -147 79 -39 -35 -2 -113 51 -113 12 0
24 -19 39 -62 12 -35 22 -68 22 -74 0 -5 -31 -20 -69 -32 -50 -16 -78 -32 -99
-56 -16 -19 -31 -38 -33 -44 -3 -6 -40 -4 -102 7 -86 14 -99 19 -110 41 -29
58 -133 45 -156 -20 -10 -29 -8 -35 18 -61 16 -16 39 -29 51 -29 25 0 77 25
82 41 2 7 11 8 28 0 14 -5 58 -15 98 -21 l72 -12 0 -36 c0 -21 4 -52 9 -70 10
-32 9 -32 -42 -54 -278 -118 -498 -255 -745 -462 l-92 -78 -48 40 c-67 56
-202 199 -238 252 -88 128 -118 230 -111 380 5 121 24 182 89 281 99 154 257
284 653 535 302 192 386 253 490 359 82 82 134 164 155 243 26 99 8 227 -47
336 -34 67 -135 165 -203 198 -110 53 -168 62 -380 63 -107 0 -228 -3 -267 -8
l-73 -7 0 25 c0 15 6 25 14 25 18 0 96 85 96 104 0 25 33 87 44 83 6 -2 41
-10 79 -17 40 -8 67 -19 67 -26 0 -23 44 -63 74 -68 22 -4 35 2 58 25 27 26
30 35 25 72 -7 49 -35 77 -80 77 -17 0 -40 -9 -51 -19 -20 -19 -24 -19 -97 -3
l-77 16 -12 53 c-14 63 -75 159 -132 207 l-42 34 29 76 c25 64 33 76 57 81 34
8 68 49 68 82 0 14 -13 38 -30 55 -27 26 -36 30 -67 25 -66 -11 -96 -63 -68
-120 14 -29 14 -35 -12 -99 -14 -38 -31 -67 -37 -64 -88 39 -143 56 -198 62
-38 4 -68 10 -68 15 0 4 -22 46 -48 92 -43 74 -47 86 -35 103 21 29 15 63 -16
95 -33 33 -50 35 -90 14 -35 -17 -55 -63 -46 -104 8 -36 25 -51 66 -60 26 -5
39 -19 75 -81 24 -41 43 -78 43 -82 1 -3 -12 -9 -28 -13 -83 -18 -159 -163
-149 -281 l6 -60 -57 -15 c-51 -13 -57 -13 -73 3 -42 42 -113 29 -132 -23 -20
-59 22 -119 85 -119 37 0 53 12 74 53 7 16 27 25 70 35 59 13 60 13 74 -10 8
-13 39 -47 68 -75 l52 -53 -41 -85 c-22 -47 -49 -90 -58 -95 -30 -16 -317 -24
-430 -11 -276 31 -467 134 -553 298 -52 100 -73 174 -117 411 -64 338 -104
439 -216 541 -139 127 -408 270 -651 346 -8 3 -9 14 -3 37 5 18 14 52 20 75 9
38 14 43 61 58 47 16 132 72 155 103 8 11 20 7 72 -25 53 -33 61 -42 62 -69 1
-85 119 -84 136 1 8 41 -26 85 -66 85 -16 0 -32 -4 -35 -10 -9 -15 -128 69
-121 85 18 47 17 87 -3 141 -12 31 -20 57 -19 58 83 51 128 72 139 65 8 -5 28
-9 46 -9 60 0 83 70 38 115 -45 45 -125 21 -125 -38 0 -18 -14 -30 -62 -56
l-63 -34 -39 26 c-50 35 -96 47 -178 47 l-66 0 -22 65 c-20 59 -20 66 -6 87
52 74 -45 148 -109 83 -43 -43 -28 -101 31 -119 15 -5 25 -20 33 -50 6 -24 13
-50 16 -59 5 -11 -7 -19 -45 -32 -29 -10 -81 -37 -116 -61 -35 -24 -65 -40
-68 -36 -3 5 -39 19 -80 32 -57 17 -76 28 -76 41 0 21 -46 59 -72 59 -25 0
-68 -44 -68 -69 0 -35 22 -70 49 -79 27 -9 64 -1 75 17 4 6 34 0 80 -15 l74
-25 -14 -34 c-31 -75 -2 -197 62 -259 l35 -34 -28 -41 -28 -41 -185 6 c-350
12 -612 -36 -877 -161 -112 -53 -179 -112 -226 -203 -55 -105 -74 -159 -138
-406 -66 -251 -95 -334 -144 -411 -64 -101 -140 -144 -252 -145 -85 0 -146 19
-222 67 -115 74 -214 186 -449 508 -72 99 -151 205 -176 235 l-46 55 0 138 c0
148 -15 248 -55 352 l-23 61 53 47 c30 26 56 47 60 47 3 0 33 -18 65 -40 32
-22 63 -40 67 -40 5 0 9 -16 9 -36 0 -28 7 -43 28 -60 33 -29 55 -30 89 -4 74
58 19 181 -65 147 -31 -13 -35 -12 -98 32 -36 24 -66 45 -67 46 -2 1 3 27 9
59 11 52 10 63 -10 119 -12 34 -22 67 -22 74 0 7 29 28 65 48 36 20 67 41 71
46 3 5 15 3 27 -6 30 -21 59 -19 91 6 36 28 36 86 1 119 -52 49 -135 19 -135
-49 0 -22 -12 -33 -77 -72 l-77 -47 -36 28 c-51 41 -118 60 -213 60 l-82 0
-27 83 c-23 71 -24 84 -12 98 7 8 17 29 20 46 5 26 1 37 -19 57 -27 27 -57 32
-94 14z m3312 -897 c-9 -48 -16 -54 -59 -46 l-36 7 31 43 c23 32 36 41 51 37
17 -4 19 -10 13 -41z m-4445 -1047 c7 -35 22 -67 41 -89 26 -30 32 -65 10 -65
-8 0 -127 169 -137 194 -5 13 1 16 34 16 l41 0 11 -56z m185 -154 c18 0 24 -9
34 -56 7 -31 23 -87 36 -125 13 -38 21 -69 17 -69 -9 0 -127 120 -165 168 -23
28 -25 36 -15 63 9 28 14 30 41 25 16 -3 39 -6 52 -6z m6873 -415 c29 -10 8
-23 -45 -29 -32 -4 -75 -9 -97 -13 l-38 -6 15 30 c15 28 17 29 84 25 37 -2 74
-5 81 -7z m-8784 -169 c19 -1 33 -2 32 -3 -1 -2 -29 -20 -62 -41 -32 -21 -85
-60 -116 -85 -51 -42 -60 -46 -78 -35 -12 8 -18 19 -15 29 3 9 6 44 8 78 2 53
5 62 22 66 11 3 45 11 75 18 51 12 57 12 78 -7 12 -11 37 -20 56 -20z m-359
-410 c-28 -62 -55 -162 -55 -200 0 -24 -2 -25 -25 -14 -14 6 -28 21 -30 32
-25 110 -25 104 9 125 17 11 51 40 76 65 24 25 45 46 47 46 1 0 -9 -24 -22
-54z m355 -1133 c0 -2 -18 10 -40 27 -22 17 -40 34 -40 37 0 2 18 -10 40 -27
22 -17 40 -34 40 -37z m8800 -5421 c0 -35 16 -59 49 -70 24 -9 29 -17 36 -57
3 -26 9 -53 11 -59 3 -7 -10 -19 -28 -28 -18 -8 -57 -37 -86 -63 l-54 -49
-115 58 c-63 31 -156 81 -205 111 -88 53 -246 165 -247 175 -1 3 143 5 319 5
l320 0 0 -23z m-5990 -1521 c0 -4 -9 -31 -21 -59 -20 -49 -22 -50 -66 -54 -43
-3 -46 -2 -64 34 -23 46 -13 75 28 81 53 8 123 7 123 -2z"/>
<path d="M12442 7669 c2 -17 23 -29 95 -58 74 -29 93 -40 93 -56 0 -28 11 -42
43 -54 38 -15 97 6 117 42 13 24 13 30 0 54 -21 37 -69 50 -109 30 -29 -14
-34 -13 -123 24 -108 45 -121 47 -116 18z"/>
</g>
</svg>
